<svg width="1408" height="1071" viewBox="0 0 1408 1071" fill="none"
  xmlns="http://www.w3.org/2000/svg">
  <g style="mix-blend-mode:overlay" clip-path="url(#clip0_0_1)">
    <g style="mix-blend-mode:overlay" filter="url(#filter0_f_0_1)">
      <path opacity="0.1" d="M210.267 95.962L631.266 61.0047L645.719 942.586L210.267 95.962Z"
        fill="#00FFFF" />
    </g>
  </g>
  <g style="mix-blend-mode:overlay" clip-path="url(#clip1_0_1)">
    <g style="mix-blend-mode:overlay" filter="url(#filter1_f_0_1)">
      <path opacity="0.2" d="M1325.23 221.058L998.715 193.946L987.506 877.682L1325.23 221.058Z"
        fill="#00FFFF" />
    </g>
  </g>
  <g style="mix-blend-mode:overlay" clip-path="url(#clip2_0_1)">
    <g style="mix-blend-mode:overlay" opacity="0.1" filter="url(#filter2_f_0_1)">
      <path opacity="0.4"
        d="M490.017 449.441C513.223 455.659 533.425 455.51 535.141 449.108C536.856 442.707 519.434 432.477
496.229 426.259C473.023 420.041 452.82 420.189 451.105 426.591C449.39 432.993 466.811 443.223
490.017 449.441Z"
        fill="white" />
    </g>
  </g>
  <g style="mix-blend-mode:overlay" opacity="0.07" filter="url(#filter3_f_0_1)">
    <path
      d="M1012.19 674.331C1007.74 664.828 1011.84 653.517 1021.34 649.065L1086.54 618.523C1096.04 614.072
1107.35 618.167 1111.81 627.669C1116.26 637.172 1112.16 648.483 1102.66 652.935L1037.46
683.477C1027.96 687.928 1016.64 683.833 1012.19 674.331Z"
      fill="white" />
  </g>
  <g opacity="0.4">
    <path opacity="0.4"
      d="M731.5 621.811C731.776 621.811 732 621.58 732 621.297C732 621.013 731.776 620.783 731.5
620.783C731.224 620.783 731 621.013 731 621.297C731 621.58 731.224 621.811 731.5 621.811Z"
      fill="white" />
    <path
      d="M1014.5 538.567C1014.78 538.567 1015 538.337 1015 538.053C1015 537.769 1014.78 537.539 1014.5
537.539C1014.22 537.539 1014 537.769 1014 538.053C1014 538.337 1014.22 538.567 1014.5 538.567Z"
      fill="white" />
    <path
      d="M239.5 862.292C239.776 862.292 240 862.062 240 861.778C240 861.494 239.776 861.264 239.5
861.264C239.224 861.264 239 861.494 239 861.778C239 862.062 239.224 862.292 239.5 862.292Z"
      fill="white" />
    <path
      d="M821.5 632.088C821.776 632.088 822 631.857 822 631.574C822 631.29 821.776 631.06 821.5
631.06C821.224 631.06 821 631.29 821 631.574C821 631.857 821.224 632.088 821.5 632.088Z"
      fill="white" />
    <path
      d="M1104.5 548.844C1104.78 548.844 1105 548.614 1105 548.33C1105 548.046 1104.78 547.816 1104.5
547.816C1104.22 547.816 1104 548.046 1104 548.33C1104 548.614 1104.22 548.844 1104.5 548.844Z"
      fill="white" />
    <path
      d="M329.5 872.568C329.776 872.568 330 872.338 330 872.055C330 871.771 329.776 871.541 329.5
871.541C329.224 871.541 329 871.771 329 872.055C329 872.338 329.224 872.568 329.5 872.568Z"
      fill="white" />
    <path
      d="M911.5 580.703C911.776 580.703 912 580.473 912 580.189C912 579.905 911.776 579.675 911.5
579.675C911.224 579.675 911 579.905 911 580.189C911 580.473 911.224 580.703 911.5 580.703Z"
      fill="white" />
    <path opacity="0.5"
      d="M1194.5 497.459C1194.78 497.459 1195 497.229 1195 496.945C1195 496.662 1194.78 496.432 1194.5
496.432C1194.22 496.432 1194 496.662 1194 496.945C1194 497.229 1194.22 497.459 1194.5 497.459Z"
      fill="white" />
    <path
      d="M419.5 821.184C419.776 821.184 420 820.954 420 820.67C420 820.386 419.776 820.156 419.5
820.156C419.224 820.156 419 820.386 419 820.67C419 820.954 419.224 821.184 419.5 821.184Z"
      fill="white" />
    <path
      d="M1001.5 488.21C1001.78 488.21 1002 487.98 1002 487.696C1002 487.412 1001.78 487.182 1001.5
487.182C1001.22 487.182 1001 487.412 1001 487.696C1001 487.98 1001.22 488.21 1001.5 488.21Z"
      fill="white" />
    <path opacity="0.5"
      d="M1284.5 404.966C1284.78 404.966 1285 404.736 1285 404.453C1285 404.169 1284.78 403.939 1284.5
403.939C1284.22 403.939 1284 404.169 1284 404.453C1284 404.736 1284.22 404.966 1284.5 404.966Z"
      fill="white" />
    <path opacity="0.4"
      d="M509.5 728.691C509.776 728.691 510 728.461 510 728.177C510 727.893 509.776 727.663 509.5
727.663C509.224 727.663 509 727.893 509 728.177C509 728.461 509.224 728.691 509.5 728.691Z"
      fill="white" />
    <path
      d="M971.5 416.271C971.776 416.271 972 416.041 972 415.757C972 415.473 971.776 415.243 971.5
415.243C971.224 415.243 971 415.473 971 415.757C971 416.041 971.224 416.271 971.5 416.271Z"
      fill="white" />
    <path opacity="0.4"
      d="M1254.5 333.028C1254.78 333.028 1255 332.798 1255 332.514C1255 332.23 1254.78 332 1254.5
332C1254.22 332 1254 332.23 1254 332.514C1254 332.798 1254.22 333.028 1254.5 333.028Z"
      fill="white" />
    <path opacity="0.4"
      d="M881.5 385.44C881.776 385.44 882 385.21 882 384.926C882 384.643 881.776 384.413 881.5
384.413C881.224 384.413 881 384.643 881 384.926C881 385.21 881.224 385.44 881.5 385.44Z"
      fill="white" />
    <path
      d="M841.5 519.041C841.776 519.041 842 518.811 842 518.527C842 518.243 841.776 518.013 841.5
518.013C841.224 518.013 841 518.243 841 518.527C841 518.811 841.224 519.041 841.5 519.041Z"
      fill="white" />
    <path
      d="M1124.5 435.797C1124.78 435.797 1125 435.567 1125 435.284C1125 435 1124.78 434.77 1124.5
434.77C1124.22 434.77 1124 435 1124 435.284C1124 435.567 1124.22 435.797 1124.5 435.797Z"
      fill="white" />
    <path
      d="M901.5 652.641C901.776 652.641 902 652.411 902 652.128C902 651.844 901.776 651.614 901.5
651.614C901.224 651.614 901 651.844 901 652.128C901 652.411 901.224 652.641 901.5 652.641Z"
      fill="white" />
    <path
      d="M1184.5 569.398C1184.78 569.398 1185 569.168 1185 568.884C1185 568.6 1184.78 568.37 1184.5
568.37C1184.22 568.37 1184 568.6 1184 568.884C1184 569.168 1184.22 569.398 1184.5 569.398Z"
      fill="white" />
    <path
      d="M409.5 893.122C409.776 893.122 410 892.892 410 892.609C410 892.325 409.776 892.095 409.5
892.095C409.224 892.095 409 892.325 409 892.609C409 892.892 409.224 893.122 409.5 893.122Z"
      fill="white" />
    <path
      d="M1051.5 590.98C1051.78 590.98 1052 590.75 1052 590.466C1052 590.182 1051.78 589.952 1051.5
589.952C1051.22 589.952 1051 590.182 1051 590.466C1051 590.75 1051.22 590.98 1051.5 590.98Z"
      fill="white" />
    <path
      d="M1334.5 507.736C1334.78 507.736 1335 507.506 1335 507.222C1335 506.938 1334.78 506.708 1334.5
506.708C1334.22 506.708 1334 506.938 1334 507.222C1334 507.506 1334.22 507.736 1334.5 507.736Z"
      fill="white" />
    <path
      d="M559.5 831.461C559.776 831.461 560 831.231 560 830.947C560 830.663 559.776 830.433 559.5
830.433C559.224 830.433 559 830.663 559 830.947C559 831.231 559.224 831.461 559.5 831.461Z"
      fill="white" />
    <path
      d="M1071.5 580.703C1071.78 580.703 1072 580.473 1072 580.189C1072 579.905 1071.78 579.675 1071.5
579.675C1071.22 579.675 1071 579.905 1071 580.189C1071 580.473 1071.22 580.703 1071.5 580.703Z"
      fill="white" />
    <path
      d="M1354.5 497.459C1354.78 497.459 1355 497.229 1355 496.945C1355 496.662 1354.78 496.432 1354.5
496.432C1354.22 496.432 1354 496.662 1354 496.945C1354 497.229 1354.22 497.459 1354.5 497.459Z"
      fill="white" />
    <path
      d="M579.5 821.184C579.776 821.184 580 820.954 580 820.67C580 820.386 579.776 820.156 579.5
820.156C579.224 820.156 579 820.386 579 820.67C579 820.954 579.224 821.184 579.5 821.184Z"
      fill="white" />
    <path
      d="M1081.5 488.21C1081.78 488.21 1082 487.98 1082 487.696C1082 487.412 1081.78 487.182 1081.5
487.182C1081.22 487.182 1081 487.412 1081 487.696C1081 487.98 1081.22 488.21 1081.5 488.21Z"
      fill="white" />
    <path
      d="M1364.5 404.966C1364.78 404.966 1365 404.736 1365 404.453C1365 404.169 1364.78 403.939 1364.5
403.939C1364.22 403.939 1364 404.169 1364 404.453C1364 404.736 1364.22 404.966 1364.5 404.966Z"
      fill="white" />
    <path
      d="M589.5 728.691C589.776 728.691 590 728.461 590 728.177C590 727.893 589.776 727.663 589.5
727.663C589.224 727.663 589 727.893 589 728.177C589 728.461 589.224 728.691 589.5 728.691Z"
      fill="white" />
    <path opacity="0.4"
      d="M1060.5 447.102C1060.78 447.102 1061 446.872 1061 446.588C1061 446.304 1060.78 446.074 1060.5
446.074C1060.22 446.074 1060 446.304 1060 446.588C1060 446.872 1060.22 447.102 1060.5 447.102Z"
      fill="white" />
    <path
      d="M1343.5 363.859C1343.78 363.859 1344 363.629 1344 363.345C1344 363.061 1343.78 362.831 1343.5
362.831C1343.22 362.831 1343 363.061 1343 363.345C1343 363.629 1343.22 363.859 1343.5 363.859Z"
      fill="white" />
    <path
      d="M568.5 687.583C568.776 687.583 569 687.353 569 687.069C569 686.785 568.776 686.555 568.5
686.555C568.224 686.555 568 686.785 568 687.069C568 687.353 568.224 687.583 568.5 687.583Z"
      fill="white" />
    <path opacity="0.4"
      d="M939.5 498.487C939.776 498.487 940 498.257 940 497.973C940 497.689 939.776 497.459 939.5
497.459C939.224 497.459 939 497.689 939 497.973C939 498.257 939.224 498.487 939.5 498.487Z"
      fill="white" />
    <path
      d="M1222.5 415.243C1222.78 415.243 1223 415.013 1223 414.73C1223 414.446 1222.78 414.216 1222.5
414.216C1222.22 414.216 1222 414.446 1222 414.73C1222 415.013 1222.22 415.243 1222.5 415.243Z"
      fill="white" />
    <path opacity="0.5"
      d="M447.5 738.968C447.776 738.968 448 738.738 448 738.454C448 738.17 447.776 737.94 447.5
737.94C447.224 737.94 447 738.17 447 738.454C447 738.738 447.224 738.968 447.5 738.968Z"
      fill="white" />
    <path opacity="0.5"
      d="M818.5 570.426C818.776 570.426 819 570.196 819 569.912C819 569.628 818.776 569.398 818.5
569.398C818.224 569.398 818 569.628 818 569.912C818 570.196 818.224 570.426 818.5 570.426Z"
      fill="white" />
    <path
      d="M1101.5 487.182C1101.78 487.182 1102 486.952 1102 486.668C1102 486.385 1101.78 486.155 1101.5
486.155C1101.22 486.155 1101 486.385 1101 486.668C1101 486.952 1101.22 487.182 1101.5 487.182Z"
      fill="white" />
    <path opacity="0.4"
      d="M326.5 810.907C326.776 810.907 327 810.677 327 810.393C327 810.109 326.776 809.879 326.5
809.879C326.224 809.879 326 810.109 326 810.393C326 810.677 326.224 810.907 326.5 810.907Z"
      fill="white" />
    <path
      d="M687.5 683.472C687.776 683.472 688 683.242 688 682.958C688 682.675 687.776 682.445 687.5
682.445C687.224 682.445 687 682.675 687 682.958C687 683.242 687.224 683.472 687.5 683.472Z"
      fill="white" />
    <path
      d="M970.5 600.229C970.776 600.229 971 599.999 971 599.715C971 599.431 970.776 599.201 970.5
599.201C970.224 599.201 970 599.431 970 599.715C970 599.999 970.224 600.229 970.5 600.229Z"
      fill="white" />
    <path
      d="M195.5 923.953C195.776 923.953 196 923.723 196 923.44C196 923.156 195.776 922.926 195.5
922.926C195.224 922.926 195 923.156 195 923.44C195 923.723 195.224 923.953 195.5 923.953Z"
      fill="white" />
    <path
      d="M606.5 796.519C606.776 796.519 607 796.289 607 796.005C607 795.721 606.776 795.491 606.5
795.491C606.224 795.491 606 795.721 606 796.005C606 796.289 606.224 796.519 606.5 796.519Z"
      fill="white" />
    <path
      d="M889.5 713.275C889.776 713.275 890 713.045 890 712.762C890 712.478 889.776 712.248 889.5
712.248C889.224 712.248 889 712.478 889 712.762C889 713.045 889.224 713.275 889.5 713.275Z"
      fill="white" />
    <path
      d="M114.5 1037C114.776 1037 115 1036.77 115 1036.49C115 1036.2 114.776 1035.97 114.5
1035.97C114.224 1035.97 114 1036.2 114 1036.49C114 1036.77 114.224 1037 114.5 1037Z"
      fill="white" />
  </g>
  <g style="mix-blend-mode:overlay" opacity="0.2" filter="url(#filter4_f_0_1)">
    <path
      d="M508 414C508 256.047 636.047 128 794 128C951.953 128 1080 256.047 1080 414C1080 571.953 951.953
700 794 700C636.047 700 508 571.953 508 414Z"
      fill="#9CEDFF" />
  </g>
  <defs>
    <filter id="filter0_f_0_1" x="82.2671" y="-66.9953" width="691.452" height="1137.58"
      filterUnits="userSpaceOnUse" color-interpolation-filters="sRGB">
      <feFlood flood-opacity="0" result="BackgroundImageFix" />
      <feBlend mode="normal" in="SourceGraphic" in2="BackgroundImageFix" result="shape" />
      <feGaussianBlur stdDeviation="64" result="effect1_foregroundBlur_0_1" />
    </filter>
    <filter id="filter1_f_0_1" x="859.506" y="65.9463" width="593.723" height="939.735"
      filterUnits="userSpaceOnUse" color-interpolation-filters="sRGB">
      <feFlood flood-opacity="0" result="BackgroundImageFix" />
      <feBlend mode="normal" in="SourceGraphic" in2="BackgroundImageFix" result="shape" />
      <feGaussianBlur stdDeviation="64" result="effect1_foregroundBlur_0_1" />
    </filter>
    <filter id="filter2_f_0_1" x="402.989" y="373.691" width="180.269" height="128.318"
      filterUnits="userSpaceOnUse" color-interpolation-filters="sRGB">
      <feFlood flood-opacity="0" result="BackgroundImageFix" />
      <feBlend mode="normal" in="SourceGraphic" in2="BackgroundImageFix" result="shape" />
      <feGaussianBlur stdDeviation="24" result="effect1_foregroundBlur_0_1" />
    </filter>
    <filter id="filter3_f_0_1" x="972.134" y="578.463" width="179.732" height="145.073"
      filterUnits="userSpaceOnUse" color-interpolation-filters="sRGB">
      <feFlood flood-opacity="0" result="BackgroundImageFix" />
      <feBlend mode="normal" in="SourceGraphic" in2="BackgroundImageFix" result="shape" />
      <feGaussianBlur stdDeviation="16" result="effect1_foregroundBlur_0_1" />
    </filter>
    <filter id="filter4_f_0_1" x="380" y="0" width="828" height="828" filterUnits="userSpaceOnUse"
      color-interpolation-filters="sRGB">
      <feFlood flood-opacity="0" result="BackgroundImageFix" />
      <feBlend mode="normal" in="SourceGraphic" in2="BackgroundImageFix" result="shape" />
      <feGaussianBlur stdDeviation="64" result="effect1_foregroundBlur_0_1" />
    </filter>
    <clipPath id="clip0_0_1">
      <rect width="691.16" height="818" fill="white" transform="translate(82.4224 253)" />
    </clipPath>
    <clipPath id="clip1_0_1">
      <rect width="519" height="724" fill="white" transform="translate(888.5 253)" />
    </clipPath>
    <clipPath id="clip2_0_1">
      <rect width="182" height="129" fill="white" transform="translate(402 373)" />
    </clipPath>
  </defs>
</svg>
  