<svg width="1920" height="1544" viewBox="0 0 1920 1544" fill="none"
  xmlns="http://www.w3.org/2000/svg">
  <path d="M757.1 107.166C757.1 343.747 757.1 925.753 757.1 925.753L588.224 1011.01L588.224 1565.21"
    stroke="url(#paint0_linear_0_1)" stroke-linecap="round" stroke-linejoin="round" />
  <path
    d="M713.798 95.4178C713.798 325.452 713.798 897.241 713.798 897.241L544.922 986.303L544.922 1565.21"
    stroke="url(#paint1_linear_0_1)" stroke-linecap="round" stroke-linejoin="round" />
  <path
    d="M627.195 89.5441C627.195 296.423 627.195 832.074 627.195 832.074L458.319 929.824L458.319 1565.21"
    stroke="url(#paint2_linear_0_1)" stroke-linecap="round" stroke-linejoin="round" />
  <path
    d="M583.894 98.3545C583.894 288.272 583.894 797.453 583.894 797.453L415.017 899.819L415.017 1565.21"
    stroke="url(#paint3_linear_0_1)" stroke-linecap="round" stroke-linejoin="round" />
  <path
    d="M540.592 110.102C540.592 282.708 540.592 764.871 540.592 764.871L371.715 871.581L371.715 1576"
    stroke="url(#paint4_linear_0_1)" stroke-linecap="round" stroke-linejoin="round" />
  <path
    d="M453.988 110.102C453.988 258.848 453.988 703.774 453.988 703.774L285.112 818.631L285.112 1565.21"
    stroke="url(#paint5_linear_0_1)" stroke-linecap="round" stroke-linejoin="round" />
  <path
    d="M367.385 30.8051C367.385 189.045 367.385 648.788 367.385 648.788L198.509 770.979L198.509 1565.21"
    stroke="url(#paint6_linear_0_1)" stroke-linecap="round" stroke-linejoin="round" />
  <path d="M280.877 81L280.877 591.268L112 721.06L112 1564.71" stroke="url(#paint7_linear_0_1)"
    stroke-linecap="round" stroke-linejoin="round" />
  <path d="M237.48 77.5L237.48 577.513L68.6038 709.205L68.6038 1565.21"
    stroke="url(#paint8_linear_0_1)" stroke-linecap="round" stroke-linejoin="round" />
  <path d="M194.178 102L194.178 557.148L25.3018 691.557L25.3018 1565.21"
    stroke="url(#paint9_linear_0_1)" stroke-linecap="round" stroke-linejoin="round" />
  <path d="M150.877 73.2477L150.877 530.674L-17.9998 668.613L-17.9998 1565.21"
    stroke="url(#paint10_linear_0_1)" stroke-linecap="round" stroke-linejoin="round" />
  <path
    d="M800.402 107.166C800.402 348.669 800.402 938.358 800.402 938.358L631.525 1027.42L631.525 1606.32"
    stroke="url(#paint11_linear_0_1)" stroke-linecap="round" stroke-linejoin="round" />
  <path
    d="M1168.3 112.841C1168.3 349.422 1168.3 931.429 1168.3 931.429L1337.18 1016.69L1337.18 1570.88"
    stroke="url(#paint12_linear_0_1)" stroke-linecap="round" stroke-linejoin="round" />
  <path
    d="M1211.6 101.093C1211.6 331.127 1211.6 902.917 1211.6 902.917L1380.48 991.979L1380.48 1570.88"
    stroke="url(#paint13_linear_0_1)" stroke-linecap="round" stroke-linejoin="round" />
  <path
    d="M1298.21 95.2198C1298.21 302.098 1298.21 837.75 1298.21 837.75L1467.08 935.499L1467.08 1570.88"
    stroke="url(#paint14_linear_0_1)" stroke-linecap="round" stroke-linejoin="round" />
  <path
    d="M1341.51 104.03C1341.51 293.948 1341.51 803.128 1341.51 803.128L1510.38 905.495L1510.38 1570.88"
    stroke="url(#paint15_linear_0_1)" stroke-linecap="round" stroke-linejoin="round" />
  <path
    d="M1384.81 115.778C1384.81 288.384 1384.81 770.546 1384.81 770.546L1553.69 877.257L1553.69 1570.88"
    stroke="url(#paint16_linear_0_1)" stroke-linecap="round" stroke-linejoin="round" />
  <path
    d="M1471.41 115.778C1471.41 264.524 1471.41 709.45 1471.41 709.45L1640.29 824.307L1640.29 1570.88"
    stroke="url(#paint17_linear_0_1)" stroke-linecap="round" stroke-linejoin="round" />
  <path
    d="M1514.72 65.8502C1514.72 220.574 1514.72 674.829 1514.72 674.829L1683.59 794.303L1683.59 1570.88"
    stroke="url(#paint18_linear_0_1)" stroke-linecap="round" stroke-linejoin="round" />
  <path
    d="M1601.32 1.23737C1601.32 163.697 1601.32 630.026 1601.32 630.026L1770.2 755.473L1770.2 1570.88"
    stroke="url(#paint19_linear_0_1)" stroke-linecap="round" stroke-linejoin="round" />
  <path d="M1687.92 146.474L1687.92 583.189L1856.8 714.881L1856.8 1570.88"
    stroke="url(#paint20_linear_0_1)" stroke-linecap="round" stroke-linejoin="round" />
  <path d="M1731.22 117.104L1731.22 562.824L1900.1 697.232L1900.1 1570.88"
    stroke="url(#paint21_linear_0_1)" stroke-linecap="round" stroke-linejoin="round" />
  <path d="M1774.53 78.9235L1774.53 536.349L1943.4 674.289L1943.4 1570.88" stroke="#4C4C4C"
    stroke-linecap="round" stroke-linejoin="round" />
  <path d="M1125 412.5C1125 654.003 1125 944.034 1125 944.034L1293.88 1033.1L1293.88 1612"
    stroke="url(#paint22_linear_0_1)" stroke-linecap="round" stroke-linejoin="round" />
  <defs>
    <linearGradient id="paint0_linear_0_1" x1="672.662" y1="107.166" x2="672.662" y2="1565.21"
      gradientUnits="userSpaceOnUse">
      <stop stop-color="#4C4C4C" />
      <stop offset="1" stop-color="#212121" />
    </linearGradient>
    <linearGradient id="paint1_linear_0_1" x1="629.36" y1="95.4178" x2="629.36" y2="1565.21"
      gradientUnits="userSpaceOnUse">
      <stop stop-color="#4C4C4C" />
      <stop offset="1" stop-color="#212121" />
    </linearGradient>
    <linearGradient id="paint2_linear_0_1" x1="542.757" y1="89.5441" x2="542.757" y2="1565.21"
      gradientUnits="userSpaceOnUse">
      <stop stop-color="#4C4C4C" />
      <stop offset="1" stop-color="#212121" />
    </linearGradient>
    <linearGradient id="paint3_linear_0_1" x1="499.455" y1="98.3545" x2="499.455" y2="1565.21"
      gradientUnits="userSpaceOnUse">
      <stop stop-color="#4C4C4C" />
      <stop offset="1" stop-color="#212121" />
    </linearGradient>
    <linearGradient id="paint4_linear_0_1" x1="456.153" y1="110.102" x2="456.153" y2="1576"
      gradientUnits="userSpaceOnUse">
      <stop stop-color="#4C4C4C" />
      <stop offset="1" stop-color="#212121" />
    </linearGradient>
    <linearGradient id="paint5_linear_0_1" x1="369.55" y1="110.102" x2="369.55" y2="1565.21"
      gradientUnits="userSpaceOnUse">
      <stop stop-color="#4C4C4C" />
      <stop offset="1" stop-color="#212121" />
    </linearGradient>
    <linearGradient id="paint6_linear_0_1" x1="282.947" y1="30.8051" x2="282.947" y2="1565.21"
      gradientUnits="userSpaceOnUse">
      <stop stop-color="#4C4C4C" />
      <stop offset="1" stop-color="#212121" />
    </linearGradient>
    <linearGradient id="paint7_linear_0_1" x1="196.438" y1="160.856" x2="196.438" y2="1564.71"
      gradientUnits="userSpaceOnUse">
      <stop stop-color="#4C4C4C" />
      <stop offset="1" stop-color="#212121" />
    </linearGradient>
    <linearGradient id="paint8_linear_0_1" x1="153.042" y1="140.798" x2="153.042" y2="1565.21"
      gradientUnits="userSpaceOnUse">
      <stop stop-color="#4C4C4C" />
      <stop offset="1" stop-color="#212121" />
    </linearGradient>
    <linearGradient id="paint9_linear_0_1" x1="109.74" y1="111.429" x2="109.74" y2="1565.21"
      gradientUnits="userSpaceOnUse">
      <stop stop-color="#4C4C4C" />
      <stop offset="1" stop-color="#212121" />
    </linearGradient>
    <linearGradient id="paint10_linear_0_1" x1="66.4385" y1="73.2477" x2="66.4384" y2="1565.21"
      gradientUnits="userSpaceOnUse">
      <stop stop-color="#4C4C4C" />
      <stop offset="1" stop-color="#212121" />
    </linearGradient>
    <linearGradient id="paint11_linear_0_1" x1="715.964" y1="107.166" x2="715.964" y2="1606.32"
      gradientUnits="userSpaceOnUse">
      <stop stop-color="#4C4C4C" />
      <stop offset="1" stop-color="#212121" />
    </linearGradient>
    <linearGradient id="paint12_linear_0_1" x1="1252.74" y1="112.841" x2="1252.74" y2="1570.88"
      gradientUnits="userSpaceOnUse">
      <stop stop-color="#4C4C4C" />
      <stop offset="1" stop-color="#212121" />
    </linearGradient>
    <linearGradient id="paint13_linear_0_1" x1="1296.04" y1="101.093" x2="1296.04" y2="1570.88"
      gradientUnits="userSpaceOnUse">
      <stop stop-color="#4C4C4C" />
      <stop offset="1" stop-color="#212121" />
    </linearGradient>
    <linearGradient id="paint14_linear_0_1" x1="1382.64" y1="95.2198" x2="1382.64" y2="1570.88"
      gradientUnits="userSpaceOnUse">
      <stop stop-color="#4C4C4C" />
      <stop offset="1" stop-color="#212121" />
    </linearGradient>
    <linearGradient id="paint15_linear_0_1" x1="1425.95" y1="104.03" x2="1425.95" y2="1570.88"
      gradientUnits="userSpaceOnUse">
      <stop stop-color="#4C4C4C" />
      <stop offset="1" stop-color="#212121" />
    </linearGradient>
    <linearGradient id="paint16_linear_0_1" x1="1469.25" y1="115.778" x2="1469.25" y2="1570.88"
      gradientUnits="userSpaceOnUse">
      <stop stop-color="#4C4C4C" />
      <stop offset="1" stop-color="#212121" />
    </linearGradient>
    <linearGradient id="paint17_linear_0_1" x1="1555.85" y1="115.778" x2="1555.85" y2="1570.88"
      gradientUnits="userSpaceOnUse">
      <stop stop-color="#4C4C4C" />
      <stop offset="1" stop-color="#212121" />
    </linearGradient>
    <linearGradient id="paint18_linear_0_1" x1="1599.15" y1="65.8501" x2="1599.15" y2="1570.88"
      gradientUnits="userSpaceOnUse">
      <stop stop-color="#4C4C4C" />
      <stop offset="1" stop-color="#212121" />
    </linearGradient>
    <linearGradient id="paint19_linear_0_1" x1="1685.76" y1="1.23736" x2="1685.76" y2="1570.88"
      gradientUnits="userSpaceOnUse">
      <stop stop-color="#4C4C4C" />
      <stop offset="1" stop-color="#212121" />
    </linearGradient>
    <linearGradient id="paint20_linear_0_1" x1="1772.36" y1="146.474" x2="1772.36" y2="1570.88"
      gradientUnits="userSpaceOnUse">
      <stop stop-color="#4C4C4C" />
      <stop offset="1" stop-color="#212121" />
    </linearGradient>
    <linearGradient id="paint21_linear_0_1" x1="1815.66" y1="117.104" x2="1815.66" y2="1570.88"
      gradientUnits="userSpaceOnUse">
      <stop stop-color="#4C4C4C" />
      <stop offset="1" stop-color="#212121" />
    </linearGradient>
    <linearGradient id="paint22_linear_0_1" x1="1209.44" y1="412.5" x2="1209.44" y2="1612"
      gradientUnits="userSpaceOnUse">
      <stop stop-color="#4C4C4C" />
      <stop offset="1" stop-color="#212121" />
    </linearGradient>
  </defs>
</svg>
  