<svg width="27" height="25" viewBox="0 0 27 25" fill="none" xmlns="http://www.w3.org/2000/svg">
<path d="M24.9231 0H2.07693C1.52619 0 0.997861 0.220173 0.608396 0.610058C0.21893 1.00147 3.43564e-05 1.53203 3.43564e-05 2.08398V22.916C-0.00225214 23.3136 0.109634 23.7019 0.32243 24.0368C0.535074 24.3716 0.839636 24.6392 1.19953 24.8043C1.47437 24.9327 1.77374 24.9985 2.07693 25C2.56457 24.9985 3.03589 24.8242 3.40752 24.5077C3.41362 24.5031 3.41941 24.4985 3.42444 24.4924L7.59378 20.8336H24.9231C25.4738 20.8336 26.0022 20.6134 26.3916 20.222C26.7811 19.8321 27 19.3016 27 18.7496V2.08398C27 1.53203 26.7811 1.00147 26.3916 0.610058C26.0022 0.220173 25.4738 0 24.9231 0ZM24.9231 18.7496H7.59378C7.10462 18.7496 6.63117 18.9224 6.25679 19.2374L6.24124 19.2527L2.07693 22.916V2.08398H24.9231V18.7496ZM8.30777 8.33284C8.30777 8.05763 8.41707 7.79312 8.61188 7.59741C8.80669 7.4017 9.0707 7.29162 9.34615 7.29162H17.6539C17.9293 7.29162 18.1933 7.4017 18.3882 7.59741C18.583 7.79312 18.6923 8.05763 18.6923 8.33284C18.6923 8.60959 18.583 8.87409 18.3882 9.06979C18.1933 9.2655 17.9293 9.37558 17.6539 9.37558H9.34615C9.0707 9.37558 8.80669 9.2655 8.61188 9.06979C8.41707 8.87409 8.30777 8.60959 8.30777 8.33284ZM8.30777 12.5008C8.30777 12.224 8.41707 11.9595 8.61188 11.7638C8.80669 11.5681 9.0707 11.458 9.34615 11.458H17.6539C17.9293 11.458 18.1933 11.5681 18.3882 11.7638C18.583 11.9595 18.6923 12.224 18.6923 12.5008C18.6923 12.776 18.583 13.0405 18.3882 13.2362C18.1933 13.4319 17.9293 13.542 17.6539 13.542H9.34615C9.0707 13.542 8.80669 13.4319 8.61188 13.2362C8.41707 13.0405 8.30777 12.776 8.30777 12.5008Z" fill="white"/>
</svg>
