<svg width="23" height="23" viewBox="0 0 23 23" fill="none" xmlns="http://www.w3.org/2000/svg">
<path fill-rule="evenodd" clip-rule="evenodd" d="M8.7905 2.67124L7.64551 5.76725C7.32351 6.63725 6.63751 7.32324 5.76651 7.64524L2.67151 8.79125L5.76651 9.93624C6.63751 10.2582 7.32351 10.9442 7.64551 11.8142L8.7905 14.9102L9.93653 11.8142C10.2585 10.9442 10.9445 10.2582 11.8145 9.93624L14.9105 8.79125L11.8145 7.64524C10.9445 7.32324 10.2585 6.63725 9.93653 5.76725L8.7905 2.67124ZM10.0685 0.89025C9.62952 -0.29675 7.95152 -0.29675 7.51252 0.89025L5.9415 5.13624C5.8035 5.50924 5.50951 5.80325 5.13651 5.94125L0.8895 7.51325C-0.2965 7.95225 -0.2965 9.63025 0.8895 10.0693L5.13651 11.6403C5.50951 11.7782 5.8035 12.0722 5.9415 12.4452L7.51252 16.6922C7.95152 17.8782 9.62952 17.8782 10.0685 16.6922L11.6405 12.4452C11.7785 12.0722 12.0725 11.7782 12.4445 11.6403L16.6915 10.0693C17.8775 9.63025 17.8775 7.95225 16.6915 7.51325L12.4445 5.94125C12.0725 5.80325 11.7785 5.50924 11.6405 5.13624L10.0685 0.89025Z" fill="white"/>
<path fill-rule="evenodd" clip-rule="evenodd" d="M17.8737 14.9882L17.4567 16.1152C17.2267 16.7372 16.7367 17.2272 16.1157 17.4572L14.9878 17.8742L16.1157 18.2912C16.7367 18.5212 17.2267 19.0112 17.4567 19.6332L17.8737 20.7612L18.2917 19.6332C18.5217 19.0112 19.0117 18.5212 19.6327 18.2912L20.7607 17.8742L19.6327 17.4572C19.0117 17.2272 18.5217 16.7372 18.2917 16.1152L17.8737 14.9882ZM18.7258 13.3642C18.4338 12.5732 17.3148 12.5732 17.0228 13.3642L16.1787 15.6422C16.0867 15.8912 15.8907 16.0872 15.6427 16.1792L13.3638 17.0222C12.5728 17.3152 12.5728 18.4332 13.3638 18.7262L15.6427 19.5692C15.8907 19.6612 16.0867 19.8572 16.1787 20.1062L17.0228 22.3852C17.3148 23.1752 18.4338 23.1752 18.7258 22.3852L19.5698 20.1062C19.6618 19.8572 19.8577 19.6612 20.1057 19.5692L22.3848 18.7262C23.1758 18.4332 23.1758 17.3152 22.3848 17.0222L20.1057 16.1792C19.8577 16.0872 19.6618 15.8912 19.5698 15.6422L18.7258 13.3642Z" fill="white"/>
</svg>
