<?xml version="1.0" encoding="UTF-8"?>
<svg version="1.1" xmlns="http://www.w3.org/2000/svg" width="240" height="240">
<path d="M0 0 C0.65613281 0.18804199 1.31226563 0.37608398 1.98828125 0.56982422 C17.90232538 5.27885281 33.66596277 12.78924116 46 24 C46.825 24.70769531 47.65 25.41539063 48.5 26.14453125 C66.94005983 42.19525406 79.37967025 62.45296633 86 86 C86.48146484 87.70736328 86.48146484 87.70736328 86.97265625 89.44921875 C91.24032317 107.81011131 91.22784204 129.87151355 86 148 C85.81195801 148.65613281 85.62391602 149.31226563 85.43017578 149.98828125 C80.72114719 165.90232538 73.21075884 181.66596277 62 194 C61.29230469 194.825 60.58460938 195.65 59.85546875 196.5 C43.80474594 214.94005983 23.54703367 227.37967025 0 234 C-1.70736328 234.48146484 -1.70736328 234.48146484 -3.44921875 234.97265625 C-21.81011131 239.24032317 -43.87151355 239.22784204 -62 234 C-62.65613281 233.81195801 -63.31226562 233.62391602 -63.98828125 233.43017578 C-79.90232538 228.72114719 -95.66596277 221.21075884 -108 210 C-108.825 209.29230469 -109.65 208.58460938 -110.5 207.85546875 C-128.94005983 191.80474594 -141.37967025 171.54703367 -148 148 C-148.48146484 146.29263672 -148.48146484 146.29263672 -148.97265625 144.55078125 C-153.24032317 126.18988869 -153.22784204 104.12848645 -148 86 C-147.81195801 85.34386719 -147.62391602 84.68773438 -147.43017578 84.01171875 C-142.72114719 68.09767462 -135.21075884 52.33403723 -124 40 C-123.29230469 39.175 -122.58460937 38.35 -121.85546875 37.5 C-105.80474594 19.05994017 -85.54703367 6.62032975 -62 0 C-60.86175781 -0.32097656 -59.72351563 -0.64195313 -58.55078125 -0.97265625 C-40.18988869 -5.24032317 -18.12848645 -5.22784204 0 0 Z " fill="#FCEAF3" transform="translate(151,3)"/>
<path d="M0 0 C4.2740234 2.31838169 7.63663662 5.28736837 11.125 8.625 C15.25875362 12.51874824 19.44230622 16.25532447 23.875 19.8125 C27.61598528 22.81613166 31.06141798 25.9089693 34.36328125 29.38671875 C36.11143628 31.10984053 37.98143795 32.52026443 39.9375 34 C42.62364722 36.29022983 42.9667545 36.86701801 43.875 40.5 C42.82778656 44.68885376 41.50725438 46.20092367 38.1484375 48.78515625 C35.16559637 50.47181733 32.28840216 51.09083342 28.91796875 51.578125 C26.77103966 51.86983071 26.77103966 51.86983071 25 54 C24.66078618 55.96859985 24.40239622 57.95148112 24.1875 59.9375 C23.53861238 64.71711125 22.52162946 68.49505371 20.375 72.8125 C18.00485418 77.62992656 17.26330061 80.65892945 18 86 C19.80488854 90.933362 23.92852441 93.44945714 28.0390625 96.44921875 C30 98 30 98 31 100 C31.68965517 107.01149425 31.68965517 107.01149425 29.125 110.6875 C22.50730507 115.58459425 16.25373971 118.5414589 8 119 C6.86676537 117.29711802 5.74377765 115.58741477 4.625 113.875 C3.68527344 112.44800781 3.68527344 112.44800781 2.7265625 110.9921875 C-1.15598485 104.26360997 -2.11902818 97.65494495 -1 90 C0.53901706 86.59882708 2.6654626 83.89523416 5 81 C10.61214279 73.32770353 14.42930178 66.83034248 16.4375 57.4375 C17.90943371 50.59457415 17.90943371 50.59457415 20.1875 47.5625 C22.17345497 45.12268766 22.17345497 45.12268766 22.5625 42.1875 C21.85582699 38.18301962 20.14214671 35.37285167 17.99609375 31.953125 C17.66738281 31.30859375 17.33867188 30.6640625 17 30 C17.33 29.34 17.66 28.68 18 28 C18.66386719 29.07121094 19.32773438 30.14242187 20.01171875 31.24609375 C20.90283828 32.64374438 21.79481011 34.04085185 22.6875 35.4375 C23.12255859 36.14455078 23.55761719 36.85160156 24.00585938 37.58007812 C26.58051751 41.69295354 26.58051751 41.69295354 30.6875 44.03125 C33.32019914 43.99567298 34.78774231 43.39290299 37 42 C36.60406943 37.55099065 33.53736744 35.43442098 30.375 32.6875 C2.60605022 7.81815066 2.60605022 7.81815066 0 0 Z " fill="#FD077D" transform="translate(56,48)"/>
<path d="M0 0 C2.0625 2 2.0625 2 4 5 C3.7640137 11.42715637 1.85769474 16.39031581 -0.9375 22.125 C-1.33791504 22.95394775 -1.73833008 23.78289551 -2.15087891 24.63696289 C-15.85130369 52.17327614 -40.06490664 72.45157758 -68.4375 83.875 C-71.57069306 84.86442939 -73.75912875 85.30383168 -77 85 C-77 83.68 -77 82.36 -77 81 C-78.485 81.495 -78.485 81.495 -80 82 C-82.1875 80.5625 -82.1875 80.5625 -84 79 C-81.91756708 75.87635063 -81.56524524 75.56039542 -78.26171875 74.4296875 C-77.52373047 74.17316406 -76.78574219 73.91664063 -76.02539062 73.65234375 C-75.25388672 73.39582031 -74.48238281 73.13929688 -73.6875 72.875 C-72.92759766 72.61074219 -72.16769531 72.34648437 -71.38476562 72.07421875 C-67.61755988 70.78466266 -63.94116274 69.64506057 -60 69 C-60 68.34 -60 67.68 -60 67 C-58.906875 66.505 -57.81375 66.01 -56.6875 65.5 C-51.89964263 63.12740758 -47.7655286 60.02247165 -43.515625 56.8046875 C-41.38521463 55.27634963 -39.37978354 54.07868693 -37 53 C-37 52.34 -37 51.68 -37 51 C-35.28515625 49.34375 -35.28515625 49.34375 -33.0625 47.5 C-30.07954821 45.11073001 -30.07954821 45.11073001 -28 42 C-27.34 42 -26.68 42 -26 42 C-26 41.34 -26 40.68 -26 40 C-25.34 40 -24.68 40 -24 40 C-24 39.34 -24 38.68 -24 38 C-23.34 38 -22.68 38 -22 38 C-21.87625 37.443125 -21.7525 36.88625 -21.625 36.3125 C-20.27565663 31.31992954 -18.64343567 28.64343567 -15 25 C-13.74563813 22.36777038 -13.74563813 22.36777038 -13 20 C-12.34 20 -11.68 20 -11 20 C-10.9175 19.195625 -10.835 18.39125 -10.75 17.5625 C-9.79803325 13.04065795 -7.98419821 9.15297299 -6 5 C-5.505 5.99 -5.505 5.99 -5 7 C-4.34 6.01 -3.68 5.02 -3 4 C-2.01 4 -1.02 4 0 4 C0 2.68 0 1.36 0 0 Z " fill="#FCC6DF" transform="translate(230,150)"/>
<path d="M0 0 C0.82564453 0.36351563 0.82564453 0.36351563 1.66796875 0.734375 C9.05317517 3.71135743 16.46944215 5.17300086 24.29760742 6.42871094 C35.90848483 8.40917972 43.87302807 12.97580798 51.5 21.9375 C54.48021037 27.70011916 53.56600266 35.69499359 53 42 C51.9765625 44.9921875 51.9765625 44.9921875 51 47 C50.34 47 49.68 47 49 47 C48.773125 45.948125 48.54625 44.89625 48.3125 43.8125 C46.9116881 39.07642167 44.42741821 36.4472134 40.15234375 33.8984375 C35.92938568 31.70875554 31.5836012 29.81512672 27.21875 27.9296875 C4.75694898 18.17300018 4.75694898 18.17300018 0.9375 10.5 C-0.04295541 6.83963313 -0.23094351 3.77207728 0 0 Z " fill="#FD047C" transform="translate(133,93)"/>
<path d="M0 0 C8.85346881 -0.75348671 15.31998308 3.14833076 22.17578125 8.4375 C24 10 24 10 25.69921875 12.18359375 C29.0990317 14.8676566 32.38427748 14.29910928 36.5 14.0625 C47.25712599 13.76543135 57.40372466 14.86391389 66 22 C68.57145636 27.14291273 66.68001108 32.85496608 65 38 C67.42919865 38.13440778 67.42919865 38.13440778 70 37 C71.38293093 34.44481903 72.21791649 31.79133871 73 29 C77.42687984 32.92095071 80.90090254 37.41240248 83 43 C82.6328125 45.27734375 82.6328125 45.27734375 82 47 C81.38125 46.21625 80.7625 45.4325 80.125 44.625 C75.45984146 40.06265487 68.97537799 40.14556912 62.76953125 39.65234375 C50.49731531 38.63161951 40.92961324 36.61900807 32.1875 27.1875 C29.51960702 23.99273408 27.0068869 20.69648172 24.5 17.375 C18.80994351 9.96347146 12.98237551 4.74038575 4 2 C2.6534734 1.36039986 1.31077107 0.710001 0 0 Z " fill="#FD077D" transform="translate(94,55)"/>
<path d="M0 0 C23.77168041 11.12501117 23.77168041 11.12501117 29.10546875 22.3203125 C31.20353886 28.60536095 30.8930044 35.69584763 28.375 41.8125 C25.67485824 47.06012533 22.47986573 51.76006714 17.125 54.4375 C16.073125 54.7159375 16.073125 54.7159375 15 55 C15.15726563 54.43539062 15.31453125 53.87078125 15.4765625 53.2890625 C17.45414958 44.64080856 15.53805856 38.40694615 11 31 C9.47368462 28.61491492 7.92520379 26.24460619 6.375 23.875 C1.38610276 16.24815464 -1.65112898 10.27858803 -1 1 C-0.67 0.67 -0.34 0.34 0 0 Z " fill="#FD037C" transform="translate(151,121)"/>
<path d="M0 0 C6.02844792 4.65302534 7.31629516 8.91301274 8.9296875 16.19140625 C9.54792642 18.96637518 10.25942846 21.65524466 11.109375 24.3671875 C11.3259375 25.07101563 11.5425 25.77484375 11.765625 26.5 C12.60286436 28.60406361 12.60286436 28.60406361 15.609375 30.2421875 C17.6585844 30.69358209 17.6585844 30.69358209 19.796875 30.8671875 C21.6840625 31.0528125 21.6840625 31.0528125 23.609375 31.2421875 C21.27310995 33.57845255 20.61984481 33.61008548 17.421875 33.7421875 C12.99552461 33.57955801 10.54555033 32.61938718 7.359375 29.55859375 C4.58184007 25.88207988 2.55721034 21.80022872 0.62475586 17.62475586 C-1.58086483 13.04537299 -3.74306098 10.66938389 -8.390625 8.2421875 C-12.19831495 7.91950191 -14.77131802 8.03575184 -18.390625 9.2421875 C-18.47159303 10.69961213 -18.52980274 12.15831557 -18.578125 13.6171875 C-18.61292969 14.42929688 -18.64773437 15.24140625 -18.68359375 16.078125 C-18.58691406 16.79226562 -18.49023438 17.50640625 -18.390625 18.2421875 C-14.5403145 20.80906117 -12.80492737 20.07507474 -8.390625 19.2421875 C-8.390625 17.2621875 -8.390625 15.2821875 -8.390625 13.2421875 C-9.174375 13.0978125 -9.958125 12.9534375 -10.765625 12.8046875 C-13.390625 12.2421875 -13.390625 12.2421875 -15.390625 11.2421875 C-14.390625 10.2421875 -14.390625 10.2421875 -11.515625 9.9921875 C-8.390625 10.2421875 -8.390625 10.2421875 -6.515625 11.3046875 C-4.72231633 14.39316354 -4.96220531 16.75362719 -5.390625 20.2421875 C-6.890625 22.6796875 -6.890625 22.6796875 -9.390625 24.2421875 C-12.71484656 24.85162812 -14.25155495 25.101422 -17.390625 24.2421875 C-19.60477176 22.70601591 -21.45422866 20.99343953 -23.39453125 19.125 C-29.02971452 13.80962165 -34.79753591 11.41981937 -42.390625 10.2421875 C-42.390625 9.5821875 -42.390625 8.9221875 -42.390625 8.2421875 C-31.15790053 -0.57886885 -13.57197925 -8.40998714 0 0 Z " fill="#FD077D" transform="translate(126.390625,155.7578125)"/>
<path d="M0 0 C2.94446552 0.60728588 5.09214514 1.51144957 7.609375 3.14453125 C8.28226563 3.57443359 8.95515625 4.00433594 9.6484375 4.44726562 C10.68871094 5.12305664 10.68871094 5.12305664 11.75 5.8125 C21.69551508 12.45288505 21.69551508 12.45288505 32.9375 16.125 C35.21484375 16.5078125 35.21484375 16.5078125 37 17 C37.495 17.99 37.495 17.99 38 19 C40.3140622 19.73075648 42.64828869 20.40138258 45 21 C44.67 21.66 44.34 22.32 44 23 C43.01 23 42.02 23 41 23 C41.66 23.66 42.32 24.32 43 25 C43.66 25 44.32 25 45 25 C44.6684108 27.48691897 44.40911559 28.6690529 42.42578125 30.2734375 C38.74823897 31.37492359 35.89387596 30.04906189 32.4375 28.75 C31.70023682 28.48058594 30.96297363 28.21117187 30.20336914 27.93359375 C24.25323895 25.66759052 18.57852938 22.9450844 12.9375 20 C12.165271 19.59749023 11.39304199 19.19498047 10.59741211 18.78027344 C5.3642834 15.95742862 0.65940895 12.68886381 -4 9 C-2.94124926 5.59687262 -1.99097846 2.98646769 0 0 Z " fill="#FBD9E9" transform="translate(49,206)"/>
<path d="M0 0 C4.87452354 0.45344405 7.56374937 1.47087773 11 5 C13.43132289 9.67562094 14.83933371 14.56947937 16.3046875 19.62109375 C17.12865726 22.4401813 18.04939415 25.22130599 19 28 C16.06348587 28.42973378 13.8626793 28.47674382 11.21875 27.015625 C4.87290873 22.06141559 1.20780791 14.90796334 0 7 C-0.03824623 4.66698014 -0.04574284 2.33288492 0 0 Z " fill="#FD0B7F" transform="translate(92,59)"/>
<path d="M0 0 C2.21573665 1.75730837 2.9402273 2.65698012 3.43359375 5.48828125 C3.44188007 11.47928725 3.32279912 15.46106092 -1 20 C-6.34271595 23.94522485 -10.87881965 26.00625553 -17.54296875 26.53515625 C-19.15268555 26.66567383 -19.15268555 26.66567383 -20.79492188 26.79882812 C-21.91447266 26.88583984 -23.03402344 26.97285156 -24.1875 27.0625 C-25.88422852 27.19881836 -25.88422852 27.19881836 -27.61523438 27.33789062 C-30.40990736 27.56193614 -33.20481111 27.78250144 -36 28 C-33.0193129 25.6729207 -30.74391498 24.43004168 -27.0625 23.5 C-26.10085937 23.24992187 -25.13921875 22.99984375 -24.1484375 22.7421875 C-21.97484711 22.22980267 -19.79136259 21.75827252 -17.6015625 21.3203125 C-11.04937765 19.98588584 -6.60067759 18.98406738 -2 14 C-0.64908472 11.29816945 -0.66141942 8.88191794 -0.4375 5.875 C-0.35371094 4.77929688 -0.26992187 3.68359375 -0.18359375 2.5546875 C-0.09271484 1.29011719 -0.09271484 1.29011719 0 0 Z " fill="#FD1685" transform="translate(144,119)"/>
<path d="M0 0 C15.05376344 6.28912784 15.05376344 6.28912784 18 13 C18.1875 15.8125 18.1875 15.8125 18 18 C18.66 18.33 19.32 18.66 20 19 C19.01 20.65 18.02 22.3 17 24 C15 22 15 22 13.875 19.3125 C10.06069442 12.57389348 3.74376322 8.51237668 -3 5 C-2.01 3.35 -1.02 1.7 0 0 Z " fill="#FDDDEC" transform="translate(164,122)"/>
<path d="M0 0 C2.9375 1.5 2.9375 1.5 5 3 C4.01 3.495 4.01 3.495 3 4 C2.67 4.66 2.34 5.32 2 6 C1.34 5.34 0.68 4.68 0 4 C-0.33 4 -0.66 4 -1 4 C-0.34 4.66 0.32 5.32 1 6 C1.3125 9 1.3125 9 1 12 C-2 14 -2 14 -5.5625 13.75 C-9 13 -9 13 -11 11 C-11.42834085 7.14493238 -11.55897202 4.87199635 -9.4375 1.5625 C-6.06772759 -0.59761052 -3.93756894 -0.4835611 0 0 Z " fill="#FDDEED" transform="translate(118,163)"/>
<path d="M0 0 C2.5 1.6875 2.5 1.6875 4 4 C4.125 6.5625 4.125 6.5625 3 9 C-0.99517564 11.69442078 -4.21287747 12.5439912 -9 12 C-11 10 -11 10 -11.375 7.125 C-11 4 -11 4 -9.4375 1.625 C-6.06489221 -0.62340519 -3.97487617 -0.56783945 0 0 Z " fill="#FD1484" transform="translate(108,100)"/>
<path d="M0 0 C4.42687984 3.92095071 7.90090254 8.41240248 10 14 C9.6328125 16.27734375 9.6328125 16.27734375 9 18 C8.071875 16.824375 8.071875 16.824375 7.125 15.625 C3.95818371 12.37580988 0.4722378 12.0443397 -3.890625 11.45703125 C-4.58671875 11.30621094 -5.2828125 11.15539062 -6 11 C-6.33 10.34 -6.66 9.68 -7 9 C-6.37609375 8.91878906 -5.7521875 8.83757812 -5.109375 8.75390625 C-2.8507553 8.20570556 -2.8507553 8.20570556 -1.953125 6.15234375 C-1.60507813 5.05599609 -1.60507813 5.05599609 -1.25 3.9375 C-1.00765625 3.20402344 -0.7653125 2.47054687 -0.515625 1.71484375 C-0.34546875 1.14894531 -0.1753125 0.58304687 0 0 Z " fill="#FD1685" transform="translate(167,84)"/>
<path d="M0 0 C0.33 0 0.66 0 1 0 C1.06316406 0.6290625 1.12632812 1.258125 1.19140625 1.90625 C2.10460626 8.28903745 3.91886366 11.81789078 8.44140625 16.40625 C10 18 10 18 11 20 C8.33333333 18.66666667 5.66666667 17.33333333 3 16 C3.04125 17.0725 3.0825 18.145 3.125 19.25 C3.0074255 22.77723487 2.65152093 24.061073 1 27 C0.98582031 26.19175781 0.97164062 25.38351563 0.95703125 24.55078125 C0.74857363 17.8180088 0.74857363 17.8180088 -2.1875 11.9375 C-5.03293575 9.97731093 -7.84040566 8.39609983 -11 7 C-6.82412255 5.60804085 -4.86525224 7.17676781 -1 9 C-0.67 6.03 -0.34 3.06 0 0 Z " fill="#FD268E" transform="translate(162,61)"/>
<path d="M0 0 C1.32 0 2.64 0 4 0 C3.53199289 4.05606165 3.12046792 7.46588679 1 11 C0.34 11 -0.32 11 -1 11 C-1 11.66 -1 12.32 -1 13 C-1.66 13 -2.32 13 -3 13 C-3.33 13.66 -3.66 14.32 -4 15 C-4.33 14.01 -4.66 13.02 -5 12 C-3.68 11.01 -2.36 10.02 -1 9 C-1.20625 8.071875 -1.4125 7.14375 -1.625 6.1875 C-2 3 -2 3 0 0 Z " fill="#FDE1EE" transform="translate(207,177)"/>
<path d="M0 0 C3.125 0.25 3.125 0.25 5 1.3125 C6.79330867 4.40097604 6.55341969 6.76143969 6.125 10.25 C4.25 12.6875 4.25 12.6875 2.125 14.25 C1.465 14.25 0.805 14.25 0.125 14.25 C0.5 12.3125 0.5 12.3125 1.125 10.25 C1.785 9.92 2.445 9.59 3.125 9.25 C3.125 7.27 3.125 5.29 3.125 3.25 C1.949375 3.0334375 1.949375 3.0334375 0.75 2.8125 C-1.875 2.25 -1.875 2.25 -3.875 1.25 C-2.875 0.25 -2.875 0.25 0 0 Z " fill="#FD1F8A" transform="translate(114.875,165.75)"/>
<path d="M0 0 C3.26954202 0.56371414 4.82575883 1.49962266 7 4 C5.25 8.875 5.25 8.875 3 10 C3 9.34 3 8.68 3 8 C2.34 8 1.68 8 1 8 C0.67 5.36 0.34 2.72 0 0 Z " fill="#FADEEC" transform="translate(188,22)"/>
<path d="M0 0 C3.89600061 0.25973337 5.64205355 0.98967531 8.75 3.25 C7.76 3.745 7.76 3.745 6.75 4.25 C6.42 4.91 6.09 5.57 5.75 6.25 C5.09 5.59 4.43 4.93 3.75 4.25 C0.16656024 4.08322718 0.16656024 4.08322718 -3.25 4.25 C-3.58 3.26 -3.91 2.27 -4.25 1.25 C-3.25 0.25 -3.25 0.25 0 0 Z " fill="#FDCAE2" transform="translate(114.25,162.75)"/>
<path d="M0 0 C0.66 0 1.32 0 2 0 C2 1.32 2 2.64 2 4 C2.66 4.66 3.32 5.32 4 6 C3.34 6.66 2.68 7.32 2 8 C1.67 8.99 1.34 9.98 1 11 C0.01 11 -0.98 11 -2 11 C-3 9 -3 9 -4 6 C-3.01 5.34 -2.02 4.68 -1 4 C-0.27617533 1.94074861 -0.27617533 1.94074861 0 0 Z " fill="#FCC1DC" transform="translate(232,137)"/>
<path d="M0 0 C0.625 1.8125 0.625 1.8125 1 4 C0.01 5.485 0.01 5.485 -1 7 C-3.625 7.1875 -3.625 7.1875 -6 7 C-6 5.68 -6 4.36 -6 3 C-4.02 2.01 -2.04 1.02 0 0 Z " fill="#FDDAEB" transform="translate(165,86)"/>
<path d="M0 0 C-3.96 2.64 -7.92 5.28 -12 8 C-12.66 7.67 -13.32 7.34 -14 7 C-12.1875 4.5 -12.1875 4.5 -10 2 C-9.01 2 -8.02 2 -7 2 C-6.67 1.34 -6.34 0.68 -6 0 C-3 -1 -3 -1 0 0 Z " fill="#FBCEE3" transform="translate(194,216)"/>
<path d="M0 0 C1.65 0 3.3 0 5 0 C5.33 1.32 5.66 2.64 6 4 C1.25 5.125 1.25 5.125 -1 4 C-0.67 2.68 -0.34 1.36 0 0 Z " fill="#FDDCEC" transform="translate(102,101)"/>
<path d="M0 0 C2.475 0.495 2.475 0.495 5 1 C5 2.65 5 4.3 5 6 C3.68 6.33 2.36 6.66 1 7 C0 2.25 0 2.25 0 0 Z " fill="#FDD6E9" transform="translate(61,142)"/>
<path d="M0 0 C3.375 4.5 3.375 4.5 4 8 C1.525 9.485 1.525 9.485 -1 11 C-0.67 7.37 -0.34 3.74 0 0 Z " fill="#FDC6E1" transform="translate(147,124)"/>
<path d="M0 0 C1.46726798 3.81489674 0.43336419 6.29011622 -1 10 C-1.99 9.67 -2.98 9.34 -4 9 C-2.94124926 5.59687262 -1.99097846 2.98646769 0 0 Z " fill="#FDE0EE" transform="translate(225,148)"/>
<path d="M0 0 C2 3 2 3 2 5 C1.01 4.67 0.02 4.34 -1 4 C-0.67 2.68 -0.34 1.36 0 0 Z M-1 5 C-0.67 6.32 -0.34 7.64 0 9 C-0.99 9.33 -1.98 9.66 -3 10 C-3 8.68 -3 7.36 -3 6 C-2.34 5.67 -1.68 5.34 -1 5 Z " fill="#FCBBD9" transform="translate(206,195)"/>
<path d="M0 0 C1.77706209 2.66559313 2.87548273 5.0280615 4 8 C2.68 8.33 1.36 8.66 0 9 C0 6.03 0 3.06 0 0 Z " fill="#FDBCDB" transform="translate(186,122)"/>
<path d="M0 0 C1.98 0.99 1.98 0.99 4 2 C4 3.32 4 4.64 4 6 C3.01 6.33 2.02 6.66 1 7 C0.67 4.69 0.34 2.38 0 0 Z " fill="#FBDFEC" transform="translate(196,28)"/>
</svg>
