<svg width="66" height="38" viewBox="0 0 66 38" fill="none" xmlns="http://www.w3.org/2000/svg">
<g clip-path="url(#clip0_146_67)">
<path d="M18.7129 16.666L11.2737 0.587402H7.40531L0.0536107 16.5304L0.00109863 16.666H4.11454L5.5674 13.2605H13.0591L14.512 16.666H18.7129ZM11.7813 10.2786H6.86267L9.33075 4.53503L11.7813 10.2786Z" fill="white"/>
<path d="M26.5911 16.6752L31.9032 4.26172H28.2179L24.7056 12.4356L21.3144 4.26172H17.3695L22.6664 16.6752H26.5911Z" fill="white"/>
<path d="M43.3269 5.44882C42.2712 4.53305 40.7661 4.0752 38.811 4.0752C37.8075 4.0752 36.804 4.21087 35.8524 4.46524C34.9007 4.71961 34.0702 5.09268 33.3781 5.56752L33.3089 5.6184L34.693 8.26389L34.7795 8.19605C35.2121 7.85689 35.7483 7.58557 36.3888 7.38205C37.0115 7.17857 37.669 7.07679 38.3265 7.07679C39.2607 7.07679 39.9527 7.28031 40.4202 7.67036C40.8525 8.04342 41.0947 8.60305 41.1121 9.29836H38.3265C36.4925 9.29836 35.1083 9.63752 34.2259 10.2989C33.3262 10.9603 32.8763 11.8929 32.8763 13.0461C32.8763 13.7753 33.0666 14.4367 33.4473 15.0133C33.8279 15.5899 34.3816 16.0477 35.091 16.3699C35.8005 16.6922 36.6481 16.8617 37.6171 16.8617C39.3474 16.8617 40.5932 16.3699 41.3196 15.3694V16.6752H44.9013V9.60358C44.9013 7.7721 44.3649 6.36457 43.3269 5.44882ZM40.126 13.8771C39.6586 14.1484 39.1225 14.2841 38.5339 14.2841C37.9286 14.2841 37.4441 14.1484 37.0981 13.911C36.7522 13.6566 36.5962 13.3344 36.5962 12.9105C36.5962 12.0117 37.2882 11.5707 38.7243 11.5707H41.0947V12.707C40.9043 13.2157 40.5757 13.6057 40.126 13.8771Z" fill="white"/>
<path fill-rule="evenodd" clip-rule="evenodd" d="M0.0010988 20.2964H3.94596V33.4978H16.425V37.3632H3.94596V37.3677H0.0010988V37.3632L0.00109863 33.4978L0.0010988 20.2964Z" fill="white"/>
<path d="M29.0874 26.1378C28.032 25.222 26.5267 24.7642 24.5716 24.7642C23.5681 24.7642 22.5645 24.8998 21.6129 25.1542C20.6613 25.4085 19.8308 25.7816 19.1387 26.2565L19.0695 26.3073L20.4537 28.9528L20.5402 28.885C20.9728 28.5458 21.5091 28.2745 22.1493 28.071C22.7722 27.8675 23.4296 27.7658 24.0871 27.7658C25.0214 27.7658 25.7135 27.9692 26.1807 28.3593C26.6132 28.7324 26.8555 29.292 26.8728 29.9873H24.0871C22.2531 29.9873 20.8689 30.3264 19.9865 30.9878C19.0868 31.6492 18.637 32.5819 18.637 33.735C18.637 34.4642 18.8273 35.1256 19.2079 35.7021C19.5886 36.2789 20.1422 36.7366 20.8516 37.0589C21.561 37.3812 22.4088 37.5507 23.3777 37.5507C25.1079 37.5507 26.3537 37.0589 27.0804 36.0582V37.3642H30.6619V30.2925C30.6619 28.461 30.1428 27.0535 29.0874 26.1378ZM25.8865 34.566C25.4194 34.8373 24.883 34.973 24.2947 34.973C23.6892 34.973 23.2047 34.8373 22.8587 34.5999C22.5126 34.3456 22.3569 34.0233 22.3569 33.5994C22.3569 32.7006 23.049 32.2597 24.4851 32.2597H26.8728V33.3959C26.6651 33.9046 26.3364 34.2947 25.8865 34.566Z" fill="white"/>
<path d="M44.0104 25.5613C43.0414 25.0356 41.969 24.7642 40.7921 24.7642C39.2696 24.7642 38.0413 25.2221 37.1241 26.1039V20.3042H33.3177V37.3474H36.9685V36.0922C37.8683 37.0421 39.1659 37.5339 40.7921 37.5339C41.969 37.5339 43.0414 37.2624 44.0104 36.7369C44.9795 36.2109 45.7407 35.448 46.2771 34.4983C46.8305 33.5486 47.1076 32.4124 47.1076 31.1405C47.1076 29.8686 46.8305 28.7494 46.2771 27.7828C45.7233 26.8501 44.9621 26.087 44.0104 25.5613ZM40.1694 27.8676C41.0692 27.8676 41.813 28.1728 42.3839 28.7664C42.9551 29.3599 43.2492 30.1739 43.2492 31.1744C43.2492 32.175 42.9551 32.989 42.3839 33.5825C41.813 34.1761 41.0692 34.4813 40.1694 34.4813C39.2696 34.4813 38.5258 34.1761 37.9546 33.5825C37.3838 32.989 37.0897 32.175 37.0897 31.1744C37.0897 30.1739 37.3838 29.3599 37.9546 28.7664C38.5258 28.1728 39.2696 27.8676 40.1694 27.8676Z" fill="white"/>
<path d="M59.1684 31.4118C58.6838 30.903 58.0956 30.5469 57.4381 30.3604C56.7809 30.1738 55.9504 29.9873 54.9295 29.8177C54.0297 29.682 53.3548 29.5464 52.957 29.3938C52.5765 29.2581 52.3861 29.0207 52.3861 28.6815C52.3861 28.3762 52.5591 28.1389 52.9225 27.9523C53.2859 27.7488 53.8567 27.6471 54.618 27.6471C55.8982 27.6471 57.0921 27.9523 58.1649 28.5458L58.2515 28.5967L59.5317 25.9003L59.4625 25.8495C58.8916 25.5103 58.1478 25.239 57.2651 25.0524C56.3827 24.8659 55.5003 24.7642 54.618 24.7642C53.4241 24.7642 52.3687 24.9337 51.4864 25.2729C50.604 25.6121 49.912 26.0869 49.4445 26.6974C48.9774 27.3079 48.7352 28.0201 48.7352 28.8172C48.7352 29.7668 48.9948 30.496 49.4968 31.0218C49.9983 31.5305 50.5866 31.8866 51.2615 32.0901C51.919 32.2936 52.784 32.4632 53.8049 32.6158C54.6524 32.7176 55.2929 32.8532 55.7081 32.9889C56.0886 33.1246 56.279 33.345 56.279 33.6503C56.279 34.3286 55.5352 34.6678 54.0816 34.6678C53.3378 34.6678 52.5591 34.566 51.7979 34.3456C51.0192 34.1251 50.3443 33.8538 49.8079 33.4977L49.7216 33.4468L48.441 36.1602L48.5103 36.211C49.0986 36.6009 49.912 36.9232 50.8981 37.1606C51.8842 37.415 52.9225 37.5337 53.9605 37.5337C55.1888 37.5337 56.2616 37.3642 57.1614 37.0419C58.0611 36.7199 58.7531 36.2448 59.2376 35.6343C59.7047 35.0239 59.947 34.3286 59.947 33.5485C59.9125 32.6497 59.6529 31.9205 59.1684 31.4118Z" fill="white"/>
<path d="M65.9698 33.6484H62.1632V37.3793H65.9698V33.6484Z" fill="#E84142"/>
</g>
<defs>
<clipPath id="clip0_146_67">
<rect width="66" height="37" fill="white" transform="translate(0 0.55957)"/>
</clipPath>
</defs>
</svg>
