<svg width="1055" height="574" viewBox="0 0 1055 574" fill="none" xmlns="http://www.w3.org/2000/svg">
<path d="M435.359 277.931L435.235 332.458C435.224 337.322 435.898 341.335 437.256 344.495C438.699 347.57 440.571 350.007 442.871 351.804C445.171 353.601 447.771 354.844 450.671 355.533C453.656 356.223 456.684 356.571 459.756 356.578C462.828 356.585 465.816 356.25 468.719 355.574C471.622 354.898 474.227 353.667 476.535 351.88C478.843 350.093 480.683 347.665 482.056 344.597C483.428 341.442 484.12 337.433 484.131 332.569L484.254 278.041L495.006 278.066L494.877 335.282C494.867 339.719 494.004 343.856 492.289 347.692C490.659 351.528 488.304 354.893 485.226 357.788C482.147 360.597 478.43 362.807 474.075 364.418C469.719 366.03 464.896 366.83 459.605 366.818C448.256 366.792 439.558 364.042 433.512 358.567C427.466 353.006 424.454 345.191 424.477 335.122L424.607 277.906L435.359 277.931ZM512.465 313.817C512.555 312.026 512.35 308.142 511.852 302.168L521.327 300.909L522.716 309.105C525.28 307.404 527.801 305.916 530.278 304.642C532.841 303.367 535.446 302.264 538.094 301.331C540.741 300.313 543.303 299.807 545.777 299.813C549.276 299.821 552.176 300.254 554.478 301.112C556.866 301.886 558.783 303.213 560.229 305.093C561.676 306.974 562.694 309.451 563.285 312.524C563.96 315.598 564.293 319.439 564.282 324.047L564.188 365.519L553.949 365.495L554.04 325.176C554.046 322.616 554.008 320.354 553.927 318.391C553.847 316.343 553.466 314.636 552.787 313.269C552.193 311.817 551.214 310.705 549.85 309.934C548.572 309.163 546.738 308.775 544.349 308.77C542.13 308.764 539.782 309.271 537.306 310.29C534.829 311.223 532.394 312.326 530.002 313.601C527.61 314.876 525.174 316.363 522.696 318.065L522.589 365.424L512.349 365.401L512.465 313.817ZM581.087 301.045L591.329 299.916L591.18 365.58L580.94 365.557L581.087 301.045ZM579.464 282.737C579.468 280.774 580.112 279.154 581.395 277.877C582.763 276.515 584.429 275.836 586.392 275.841C588.44 275.845 590.145 276.532 591.507 277.9C592.955 279.184 593.676 280.807 593.672 282.769C593.668 284.732 592.938 286.394 591.485 287.756C590.116 289.033 588.408 289.669 586.36 289.665C584.398 289.66 582.735 289.016 581.373 287.733C580.096 286.365 579.46 284.7 579.464 282.737ZM643.223 311.809C639.642 310.692 636.444 309.959 633.628 309.612C630.899 309.179 628.382 308.96 626.078 308.955C623.091 308.948 620.572 309.668 618.521 311.114C616.555 312.56 615.569 314.435 615.564 316.739C615.645 318.787 616.537 320.538 618.24 321.993C619.944 323.447 621.903 324.775 624.119 325.974C626.421 327.089 628.935 328.332 631.663 329.703C634.476 331.075 637.075 332.617 639.46 334.329C641.931 336.041 643.932 338.094 645.462 340.487C646.993 342.879 647.797 345.74 647.875 349.068C647.782 352.652 646.964 355.637 645.423 358.023C643.967 360.323 642.043 362.196 639.65 363.642C637.343 365.002 634.823 365.935 632.092 366.44C629.36 367.032 626.799 367.324 624.41 367.319C621.338 367.312 618.138 367.134 614.811 366.785C611.569 366.437 608.072 365.703 604.32 364.586L606.261 355.374C610.098 356.407 613.595 357.183 616.751 357.702C619.908 358.135 622.51 358.355 624.558 358.359C626.094 358.363 627.588 358.196 629.039 357.857C630.576 357.52 631.942 357.053 633.138 356.459C634.334 355.779 635.275 354.928 635.96 353.905C636.73 352.883 637.117 351.732 637.12 350.452C637.04 348.062 636.234 346.055 634.701 344.43C633.169 342.72 631.167 341.222 628.696 339.937C626.309 338.566 623.71 337.237 620.897 335.951C618.169 334.579 615.57 333.038 613.099 331.325C610.714 329.528 608.713 327.433 607.097 325.04C605.482 322.561 604.678 319.53 604.686 315.946C604.692 313.386 605.337 311.126 606.621 309.167C607.991 307.122 609.702 305.462 611.753 304.186C613.889 302.826 616.195 301.807 618.671 301.13C621.233 300.368 623.709 299.989 626.098 299.995C628.573 300 631.346 300.22 634.417 300.654C637.488 301.002 641.028 301.692 645.036 302.726L643.223 311.809ZM653.614 301.337L664.366 301.361L671.852 330.434C672.529 332.911 673.121 335.557 673.626 338.374C674.217 341.106 674.766 343.668 675.273 346.058C675.778 348.875 676.327 351.65 676.918 354.382H677.046C677.65 351.653 678.338 348.881 679.113 346.067C679.801 343.679 680.532 341.121 681.306 338.392C682.081 335.578 682.855 332.934 683.628 330.461L692.782 301.426L706.478 301.457L713.708 330.529C714.3 333.005 714.891 335.652 715.482 338.469C716.159 341.201 716.707 343.763 717.129 346.153C717.634 348.97 718.14 351.745 718.646 354.476L718.774 354.477C719.548 351.662 720.365 348.848 721.225 346.034C721.913 343.646 722.687 341.088 723.546 338.36C724.406 335.545 725.223 332.945 725.996 330.557L735.022 301.521L745.646 301.545L724.38 365.881L712.988 365.856L703.852 330.507C703.006 327.262 702.287 324.359 701.696 321.798C701.19 319.151 700.726 316.932 700.303 315.139C699.881 313.005 699.501 311.126 699.164 309.504H698.908C698.563 311.124 698.132 313.001 697.615 315.133C697.184 316.924 696.582 319.141 695.808 321.785C695.034 324.343 694.174 327.242 693.228 330.483L682.268 365.786L670.876 365.76L653.614 301.337ZM790.382 336.463C788.675 336.544 787.054 336.626 785.517 336.708C783.981 336.79 782.445 336.914 780.908 337.081C779.458 337.163 778.135 337.288 776.94 337.456C770.794 338.211 766.439 339.566 763.874 341.523C761.31 343.394 760.024 346.122 760.016 349.706C760.009 352.693 760.9 354.956 762.688 356.496C764.562 357.951 766.993 358.682 769.979 358.689C774.075 358.698 777.704 358.024 780.864 356.665C784.11 355.222 787.272 353.352 790.349 351.055L790.382 336.463ZM790.201 360.015C786.185 362.309 782.426 364.178 778.924 365.621C775.507 366.979 771.794 367.653 767.783 367.644C762.066 367.631 757.504 366.255 754.097 363.517C750.775 360.693 749.121 356.081 749.136 349.682C749.143 346.354 750.003 343.454 751.716 340.983C753.428 338.513 755.651 336.47 758.385 334.854C761.205 333.154 764.366 331.839 767.866 330.908C771.367 329.977 774.953 329.388 778.622 329.14C780.159 328.973 782.164 328.85 784.639 328.77C787.114 328.605 789.035 328.481 790.4 328.399C790.407 325.412 790.328 322.767 790.162 320.462C789.997 318.073 789.489 316.066 788.64 314.443C787.79 312.734 786.513 311.451 784.808 310.594C783.189 309.737 780.843 309.305 777.771 309.298C775.297 309.293 772.907 309.458 770.602 309.794C768.298 310.045 766.249 310.339 764.456 310.676C762.322 311.098 760.358 311.563 758.565 312.071L756.537 303.234C758.672 302.727 760.977 302.263 763.452 301.842C765.587 301.42 768.062 301.084 770.879 300.835C773.695 300.5 776.725 300.336 779.968 300.343C784.32 300.353 787.817 301.001 790.459 302.287C793.187 303.573 795.274 305.327 796.719 307.549C798.251 309.686 799.269 312.163 799.775 314.98C800.366 317.712 800.658 320.614 800.651 323.686L800.581 354.406C800.579 355.601 800.576 356.881 800.573 358.246C800.655 359.526 800.737 360.806 800.82 362.087C800.988 363.367 801.155 364.69 801.323 366.056L791.465 367.057L790.201 360.015ZM817.56 316.556C817.567 313.484 817.364 308.919 816.951 302.859L826.426 301.6L827.562 308.515C829.272 307.068 831.024 305.792 832.819 304.687C834.699 303.497 836.707 302.52 838.842 301.757C841.062 300.908 843.41 300.487 845.884 300.493C849.383 300.5 852.667 301.105 855.736 302.307C858.891 303.509 861.617 305.435 863.915 308.085C866.299 310.736 868.168 314.196 869.524 318.466C870.88 322.651 871.551 327.815 871.537 333.959C871.523 340.188 870.572 345.477 868.685 349.824C866.883 354.087 864.486 357.58 861.493 360.304C858.586 362.943 855.253 364.855 851.496 366.041C847.824 367.228 844.068 367.817 840.228 367.808C836.132 367.713 831.952 367.192 827.688 366.243L827.625 394.019L817.382 395.276L817.56 316.556ZM840.248 358.848C843.832 358.856 846.906 358.223 849.469 356.949C852.032 355.675 854.126 353.93 855.753 351.715C857.464 349.415 858.708 346.815 859.482 343.915C860.257 340.931 860.648 337.774 860.656 334.446C860.662 331.459 860.37 328.472 859.78 325.484C859.275 322.496 858.385 319.849 857.11 317.542C855.921 315.15 854.304 313.226 852.259 311.771C850.214 310.23 847.699 309.457 844.712 309.45C842.494 309.445 840.402 309.867 838.437 310.716C836.473 311.479 834.593 312.456 832.799 313.647C831.089 314.752 829.423 316.029 827.798 317.476L827.709 356.771C828.647 357.115 829.67 357.459 830.779 357.802C831.973 358.061 833.337 358.32 834.873 358.58C836.494 358.754 838.286 358.843 840.248 358.848Z" fill="white"/>
<path d="M97.694 137.729C102.852 144.423 162.583 220.675 167.462 226.86C185.583 249.779 191.019 257.274 191.019 259.238C191.019 262.076 188.022 264.55 182.656 266.078C178.544 267.314 178.125 267.314 175.268 266.15C170.737 264.331 169.762 262.949 143.625 220.53C137.352 210.271 132.055 201.903 131.985 202.049C131.846 202.122 137.073 212.09 143.555 224.095C159.377 253.49 164.534 263.822 164.534 265.859C164.534 266.878 163.21 269.424 161.677 271.607C157.774 276.991 156.31 280.775 155.125 288.633C152.128 307.914 149.619 313.59 136.028 331.27C132.543 335.854 128.5 342.111 127.037 345.022C124.597 350.188 124.458 350.915 124.179 358.628C123.9 369.76 125.364 374.926 132.613 387.586C135.679 392.825 138.328 398.064 138.537 399.228C138.955 401.265 139.025 401.265 142.51 400.829C144.461 400.538 149.34 399.155 153.383 397.773C173.246 390.861 182.934 379.51 179.031 367.577C177.707 363.43 175.756 361.175 169.134 356.081C153.104 343.639 151.501 337.455 159.516 318.683C164.465 307.332 165.58 303.112 166.486 292.999C167.601 281.503 169.553 278.956 178.753 277.355C186.419 276.046 190.88 274.008 194.992 269.934C198.756 266.296 199.662 264.259 200.359 258.438L200.707 255.164L187.256 239.52C158.192 205.832 105.779 145.878 98.3213 137.729L94 133L97.694 137.729ZM141.464 356.445C144.322 358.919 144.531 363.139 141.882 365.831C138.188 369.76 133.449 366.413 136.167 361.757C136.864 360.52 136.794 360.156 135.819 359.356C133.449 357.537 134.913 354.626 138.188 354.553C138.816 354.553 140.279 355.427 141.464 356.445Z" fill="white"/>
<path d="M195.201 199.939C211.162 203.504 220.92 211.435 237.996 234.5C252.772 254.509 260.717 261.421 273.263 264.986C281.069 267.242 284.902 267.824 300.306 269.061C320.1 270.661 326.094 272.917 331.391 280.993C332.506 282.667 333.552 283.831 333.761 283.685C334.249 283.103 332.367 275.827 330.485 271.244C328.185 265.568 325.188 260.33 321.006 254.727L317.66 250.216L316.476 254.509C313.548 265.641 308.042 270.807 303.93 266.514C302.257 264.768 302.188 262.803 303.581 259.893C306.3 254.436 306.23 241.194 303.442 237.992C299.887 233.845 284.763 227.369 273.82 225.332C266.432 223.877 251.029 223.731 244.129 224.896L239.808 225.696L233.396 218.711C221.059 205.469 207.817 198.702 194.574 198.92L190.671 198.993L195.201 199.939Z" fill="white"/>
<path d="M309.157 209.179C308.529 211.289 307.902 215.582 307.623 218.638C307.414 221.694 306.996 224.604 306.648 225.114C306.09 226.132 306.299 226.205 295.357 222.203C286.644 219.002 286.505 219.366 294.729 223.659C303.163 227.951 308.251 232.608 309.436 237.046C310.411 240.757 310.411 257.346 309.436 259.456C308.739 260.984 308.808 260.984 309.784 259.675C311.317 257.71 312.99 249.125 312.99 243.376C312.99 239.739 313.269 238.065 314.036 237.41C315.22 236.392 316.127 236.828 322.539 242.212C324.769 244.104 327.209 246.141 327.975 246.796C329.578 248.106 327.487 245.559 319.333 236.319C316.127 232.681 312.99 228.606 312.293 227.151C310.481 223.513 309.296 213.909 310.133 209.398C311.039 204.523 310.551 204.377 309.157 209.179Z" fill="white"/>
<path d="M188.929 212.017C188.929 224.968 193.947 238.793 201.823 247.524C208.305 254.654 217.435 259.238 220.502 256.91C221.547 256.037 221.338 255.382 218.202 249.779C215.275 244.613 214.299 241.703 211.999 232.099C209.002 219.657 207.19 215.51 203.077 212.017C200.499 209.834 194.853 207.142 190.88 206.342L188.929 205.905V212.017Z" fill="white"/>
<path d="M257.929 270.007C257.929 278.883 261.065 287.833 266.362 293.799C272.217 300.42 283.926 307.478 301.699 314.972C322.469 323.776 333.412 330.179 337.942 336.145C341.009 340.292 342.96 344.804 343.448 348.805C343.657 350.77 344.075 352.371 344.354 352.371C344.981 352.371 348.187 344.876 349.163 341.02C350.418 336.145 350.209 320.647 348.884 315.991C346.097 306.677 340.799 298.601 333.69 292.999C324.281 285.65 316.266 282.812 293.475 278.81C271.868 275.027 266.571 273.354 260.856 268.406C259.741 267.314 258.556 266.514 258.347 266.514C258.138 266.514 257.929 268.115 257.929 270.007Z" fill="white"/>
<path d="M203.216 281.066C199.313 283.613 197.71 286.741 197.432 292.126C197.153 296.637 197.292 297.146 199.035 298.965C200.777 300.784 201.126 300.857 206.91 300.566C219.456 299.911 225.102 293.435 220.014 285.432C216.668 280.12 207.956 277.865 203.216 281.066ZM214.786 282.958C218.132 286.159 214.298 290.961 208.932 290.234C202.868 289.506 201.683 283.831 207.05 281.575C208.862 280.775 213.392 281.575 214.786 282.958Z" fill="white"/>
<path d="M276.399 312.717C277.723 316.573 278.281 321.011 278.002 326.468C277.863 331.416 277.375 333.235 275.493 337.237C270.893 347.059 263.644 351.279 244.826 354.917C237.926 356.227 230.398 357.9 228.238 358.555C224.335 359.719 212.904 365.322 213.392 365.758C213.531 365.904 216.529 365.249 219.944 364.376C223.916 363.357 231.374 362.266 240.156 361.538C247.823 360.884 256.047 359.865 258.487 359.283C268.663 356.736 276.399 350.77 280.372 342.33C282.532 337.819 282.672 336.946 282.672 330.179C282.672 323.849 282.463 322.394 280.86 318.901C278.978 314.754 275.423 309.806 276.399 312.717Z" fill="white"/>
<path d="M289.014 319.993C287.132 327.705 288.248 337.164 292.081 345.386C293.266 348.005 298.145 356.227 302.954 363.794C312.014 377.982 316.615 386.786 317.799 392.388C319.402 399.519 318.496 408.032 315.499 415.235C314.384 417.927 314.384 418 315.499 417.563C319.193 416.108 326.721 409.924 330.066 405.558C337.245 396.245 340.8 385.549 340.869 373.471C340.869 361.538 337.245 352.08 329.439 343.93C323.863 338.182 319.402 334.908 308.808 328.724C304.766 326.395 299.051 323.048 296.123 321.302C293.196 319.629 290.478 318.174 290.129 318.174C289.711 318.174 289.223 318.974 289.014 319.993Z" fill="white"/>
<path d="M211.581 376.381C199.523 379.219 183.492 387.95 176.523 395.517L174.223 397.991L180.565 399.228C192.553 401.483 196.526 403.885 208.096 415.744C214.647 422.438 218.62 424.548 224.475 424.548C229.354 424.548 233.396 422.584 236.114 418.8C237.857 416.399 238.066 415.599 238.066 410.506C238.066 405.485 237.857 404.685 236.323 402.939C233.745 400.028 231.236 398.937 227.332 398.937C224.405 398.937 223.429 399.301 221.548 401.047C218.69 403.739 218.411 407.595 220.99 410.069L222.663 411.67L221.338 409.996C219.387 407.523 219.666 404.176 222.035 401.993C225.869 398.573 232.978 401.047 234.72 406.431C235.766 409.778 234.79 413.78 232.211 416.472C224.823 424.112 210.535 414.144 213.323 403.302C214.229 399.737 217.923 395.735 221.338 394.571C225.102 393.262 231.863 393.916 235.975 396.026C242.387 399.301 245.524 403.448 252.005 417.345C256.327 426.731 258.696 430.878 261.206 433.716C268.942 442.302 280.094 443.393 290.618 436.481C294.173 434.08 294.033 433.352 290.27 435.026C286.576 436.626 277.654 437.209 274.309 436.044C270.685 434.807 266.712 430.878 265.039 426.731C264.272 424.839 262.809 418.509 261.833 412.543C259.672 399.81 258.209 395.226 254.654 389.624C246.987 377.837 228.935 372.234 211.581 376.381Z" fill="white"/>
</svg>
