<?xml version="1.0" standalone="no"?>
<!DOCTYPE svg PUBLIC "-//W3C//DTD SVG 20010904//EN"
 "http://www.w3.org/TR/2001/REC-SVG-20010904/DTD/svg10.dtd">
<svg version="1.0" xmlns="http://www.w3.org/2000/svg"
 width="850.000000pt" height="530.000000pt" viewBox="0 0 850.000000 530.000000"
 preserveAspectRatio="xMidYMid meet">

<!-- White background with rounded corners -->
<rect width="850" height="530" fill="white" rx="40" ry="40"/>

<g transform="translate(0.000000,530.000000) scale(0.100000,-0.100000)"
fill="#FF007B" stroke="none">
<path d="M2491 4670 c74 -92 931 -1140 1001 -1225 260 -315 338 -418 338 -445
0 -39 -43 -73 -120 -94 -59 -17 -65 -17 -106 -1 -65 25 -79 44 -454 627 -90
141 -166 256 -167 254 -2 -1 73 -138 166 -303 227 -404 301 -546 301 -574 0
-14 -19 -49 -41 -79 -56 -74 -77 -126 -94 -234 -43 -265 -79 -343 -274 -586
-50 -63 -108 -149 -129 -189 -35 -71 -37 -81 -41 -187 -4 -153 17 -224 121
-398 44 -72 82 -144 85 -160 6 -28 7 -28 57 -22 28 4 98 23 156 42 285 95 424
251 368 415 -19 57 -47 88 -142 158 -230 171 -253 256 -138 514 71 156 87 214
100 353 16 158 44 193 176 215 110 18 174 46 233 102 54 50 67 78 77 158 l5
45 -193 215 c-417 463 -1169 1287 -1276 1399 l-62 65 53 -65z m628 -3006 c41
-34 44 -92 6 -129 -53 -54 -121 -8 -82 56 10 17 9 22 -5 33 -34 25 -13 65 34
66 9 0 30 -12 47 -26z"/>
<path d="M3890 3815 c229 -49 369 -158 614 -475 212 -275 326 -370 506 -419
112 -31 167 -39 388 -56 284 -22 370 -53 446 -164 16 -23 31 -39 34 -37 7 8
-20 108 -47 171 -33 78 -76 150 -136 227 l-48 62 -17 -59 c-42 -153 -121 -224
-180 -165 -24 24 -25 51 -5 91 39 75 38 257 -2 301 -51 57 -268 146 -425 174
-106 20 -327 22 -426 6 l-62 -11 -92 96 c-177 182 -367 275 -557 272 l-56 -1
65 -13z"/>
<path d="M5525 3688 c-9 -29 -18 -88 -22 -130 -3 -42 -9 -82 -14 -89 -8 -14
-5 -15 -162 40 -125 44 -127 39 -9 -20 121 -59 194 -123 211 -184 14 -51 14
-279 0 -308 -10 -21 -9 -21 5 -3 22 27 46 145 46 224 0 50 4 73 15 82 17 14
30 8 122 -66 32 -26 67 -54 78 -63 23 -18 -7 17 -124 144 -46 50 -91 106 -101
126 -26 50 -43 182 -31 244 13 67 6 69 -14 3z"/>
<path d="M3800 3649 c0 -178 72 -368 185 -488 93 -98 224 -161 268 -129 15 12
12 21 -33 98 -42 71 -56 111 -89 243 -43 171 -69 228 -128 276 -37 30 -118 67
-175 78 l-28 6 0 -84z"/>
<path d="M4790 2852 c0 -122 45 -245 121 -327 84 -91 252 -188 507 -291 298
-121 455 -209 520 -291 44 -57 72 -119 79 -174 3 -27 9 -49 13 -49 9 0 55 103
69 156 18 67 15 280 -4 344 -40 128 -116 239 -218 316 -135 101 -250 140 -577
195 -310 52 -386 75 -468 143 -16 15 -33 26 -36 26 -3 0 -6 -22 -6 -48z"/>
<path d="M4005 2700 c-56 -35 -79 -78 -83 -152 -4 -62 -2 -69 23 -94 25 -25
30 -26 113 -22 180 9 261 98 188 208 -48 73 -173 104 -241 60z m166 -26 c48
-44 -7 -110 -84 -100 -87 10 -104 88 -27 119 26 11 91 0 111 -19z"/>
<path d="M5055 2265 c19 -53 27 -114 23 -189 -2 -68 -9 -93 -36 -148 -66 -135
-170 -193 -440 -243 -99 -18 -207 -41 -238 -50 -56 -16 -220 -93 -213 -99 2
-2 45 7 94 19 57 14 164 29 290 39 110 9 228 23 263 31 146 35 257 117 314
233 31 62 33 74 33 167 0 87 -3 107 -26 155 -27 57 -78 125 -64 85z"/>
<path d="M5236 2165 c-27 -106 -11 -236 44 -349 17 -36 87 -149 156 -253 130
-195 196 -316 213 -393 23 -98 10 -215 -33 -314 -16 -37 -16 -38 0 -32 53 20
161 105 209 165 103 128 154 275 155 441 0 164 -52 294 -164 406 -80 79 -144
124 -296 209 -58 32 -140 78 -182 102 -42 23 -81 43 -86 43 -6 0 -13 -11 -16
-25z"/>
<path d="M4125 1390 c-173 -39 -403 -159 -503 -263 l-33 -34 91 -17 c172 -31
229 -64 395 -227 94 -92 151 -121 235 -121 70 0 128 27 167 79 25 33 28 44 28
114 0 69 -3 80 -25 104 -37 40 -73 55 -129 55 -42 0 -56 -5 -83 -29 -41 -37
-45 -90 -8 -124 l24 -22 -19 23 c-28 34 -24 80 10 110 55 47 157 13 182 -61
15 -46 1 -101 -36 -138 -106 -105 -311 32 -271 181 13 49 66 104 115 120 54
18 151 9 210 -20 92 -45 137 -102 230 -293 62 -129 96 -186 132 -225 111 -118
271 -133 422 -38 51 33 49 43 -5 20 -53 -22 -181 -30 -229 -14 -52 17 -109 71
-133 128 -11 26 -32 113 -46 195 -31 175 -52 238 -103 315 -110 162 -369 239
-618 182z"/>
</g>
</svg>
